<svg xmlns="http://www.w3.org/2000/svg"
    xmlns:xlink="http://www.w3.org/1999/xlink" fill = "#025464" version="1.1" x="0px" y="0px" viewBox="0 0 512 635" style="vertical-align: middle;" width = "200px" height = "133.34px">
    <g>
        <path d="M340,84c-30.58,0-59.274,8.217-84,22.552C231.274,92.217,202.58,84,172,84C79.364,84,4,159.364,4,252s75.364,168,168,168   c30.58,0,59.274-8.217,84-22.552C280.726,411.783,309.42,420,340,420c92.636,0,168-75.364,168-168S432.636,84,340,84z M172,412   c-88.224,0-160-71.776-160-160S83.776,92,172,92c27.58,0,53.552,7.015,76.226,19.353c-25.158,16.472-45.648,39.502-59.023,66.647   H96.218c-11.021,0-19.987,8.966-19.987,19.987v78.652l-22.602,29.382c-4.067,5.288-4.763,12.291-1.816,18.275   C54.76,330.282,60.734,334,67.406,334h126.013c13.297,23.676,32.16,43.819,54.808,58.647C225.552,404.985,199.58,412,172,412z    M374,188.158c4.563-2.785,18.66-10.158,40-10.158c21.334,0,35.433,7.371,40,10.158V322.99c-7.428-3.777-21.104-8.99-40-8.99   c-18.906,0-32.575,5.215-40,8.992V188.158z M366,322.992c-7.142-3.633-20.08-8.574-37.878-8.948   C335.781,294.84,340,273.904,340,252c0-26.515-6.184-51.61-17.17-73.932c1.042-0.036,2.09-0.068,3.17-0.068   c21.348,0,35.448,7.379,40,10.158V322.992z M332,252c0,22.056-4.486,43.083-12.593,62.219c-15.502,1.02-26.873,5.449-33.407,8.771   V188.158c3.665-2.236,13.481-7.417,28.235-9.38C325.583,200.732,332,225.63,332,252z M279.6,182.8c-1.007,0.755-1.6,1.941-1.6,3.2   v144c0,1.511,0.856,2.889,2.205,3.569c1.349,0.679,2.971,0.538,4.186-0.362c0.13-0.096,11.415-8.277,31.157-10.596   c-13.339,27.007-34.074,49.729-59.548,65.506c-21.807-13.507-40.143-32.101-53.338-54.118h50.393   c6.671,0,12.646-3.718,15.594-9.703c2.947-5.985,2.25-12.988-1.817-18.275L244.23,276.64v-78.652   c0-11.021-8.966-19.987-19.987-19.987h-26.067c13.369-25.52,33.423-47.004,57.824-62.118c22.231,13.769,40.853,32.827,54.1,55.406   C290.963,174.45,280.157,182.382,279.6,182.8z M82.2,282h92.486c0.487,2.689,1.036,5.357,1.649,8H92.23c-2.209,0-4,1.791-4,4   s1.791,4,4,4h86.172c0.768,2.695,1.603,5.362,2.501,8H80.23c-2.209,0-4,1.791-4,4s1.791,4,4,4H183.86   c1.627,4.082,3.414,8.082,5.344,12H67.406c-3.655,0-6.801-1.958-8.416-5.237c-1.615-3.279-1.249-6.967,0.98-9.864L82.2,282z    M180,252c0-17.455,2.819-34.261,8.01-50h32.22v56h-40.107C180.05,256.008,180,254.01,180,252z M172.119,258H100.23v-56h79.367   c-4.936,15.8-7.597,32.595-7.597,50C172,254.009,172.048,256.007,172.119,258z M224.23,266c2.209,0,4-1.791,4-4v-64   c0-2.209-1.791-4-4-4h-33.347c1.055-2.702,2.177-5.371,3.373-8h29.987c6.61,0,11.987,5.377,11.987,11.987V274h-54.711   c-0.366-2.647-0.666-5.314-0.9-8H224.23z M182.323,194H96.23c-2.209,0-4,1.791-4,4v64c0,2.209,1.791,4,4,4h76.358   c0.223,2.685,0.505,5.352,0.853,8H84.23v-76.013c0-6.61,5.377-11.987,11.987-11.987h89.299   C184.387,188.634,183.32,191.3,182.323,194z M192.504,314h47.727c2.209,0,4-1.791,4-4s-1.791-4-4-4h-50.844   c-0.948-2.635-1.826-5.303-2.637-8h41.48c2.209,0,4-1.791,4-4s-1.791-4-4-4h-43.659c-0.646-2.642-1.226-5.309-1.739-8h55.428   l22.23,28.899c2.229,2.897,2.595,6.584,0.98,9.863S256.71,326,253.055,326h-54.879C196.128,322.09,194.23,318.09,192.504,314z    M340,412c-27.58,0-53.552-7.015-76.226-19.353c26.38-17.272,47.628-41.754,60.922-70.63C325.13,322.011,325.559,322,326,322   c26.175,0,41.458,11.095,41.6,11.2c1.415,1.061,3.369,1.06,4.791,0.007C372.542,333.095,387.825,322,414,322   s41.458,11.095,41.6,11.2c0.706,0.529,1.55,0.8,2.4,0.8c0.61,0,1.222-0.139,1.789-0.422C461.144,332.9,462,331.515,462,330V186   c0-1.259-0.593-2.445-1.6-3.2C459.703,182.277,443,170,414,170c-23.076,0-38.365,7.773-44,11.212   C364.365,177.773,349.076,170,326,170c-2.519,0-4.938,0.098-7.269,0.267c-13.305-23.792-32.225-44.031-54.957-58.915   C286.448,99.015,312.42,92,340,92c88.224,0,160,71.776,160,160S428.224,412,340,412z"/>
    </g>
</svg>