<?xml version="1.0" encoding="utf-8"?>
<!-- Generator: Adobe Illustrator 26.5.0, SVG Export Plug-In . SVG Version: 6.00 Build 0)  -->
<svg version="1.0" id="Layer_2" xmlns="http://www.w3.org/2000/svg" xmlns:xlink="http://www.w3.org/1999/xlink" x="0px" y="0px"
	 viewBox="0 0 3285.22 2382.1" style="enable-background:new 0 0 3285.22 2382.1;" xml:space="preserve">
<style type="text/css">
	.st0{fill:#F40002;}
	.st1{fill:none;}
	.st2{fill:#FFFFFF;}
	.st3{clip-path:url(#SVGID_00000135692997047023455700000017579536832653536153_);}
</style>
<g id="Layer_1-2">
	<path class="st0" d="M1642.6,195.56h0.01c549.79,0,995.49,445.7,995.49,995.49v0.01c0,549.79-445.7,995.49-995.49,995.49h-0.01
		c-549.79,0-995.49-445.7-995.49-995.49v-0.01C647.11,641.25,1092.81,195.56,1642.6,195.56z"/>
	<path class="st1" d="M1642.6,195.56h0.02c549.79,0,995.49,445.7,995.49,995.49v0.01c0,549.79-445.7,995.49-995.49,995.49h-0.02
		c-549.79,0-995.49-445.7-995.49-995.49v-0.01C647.11,641.25,1092.81,195.56,1642.6,195.56z"/>
	<path class="st2" d="M1162.8,910.85c-51.89-13.24-138.12,75.14-174.44,147.05c-22.41,44.37-32.23,100.11,7.66,114.61
		c39.88,14.51,107.57-58.22,123.47-79.37c15.92-21.14,41.97-63.52,41.97-63.52s7.99-1.54,13.23-2.74
		c5.24-1.22,13.69-3.63,13.69-3.63s-9.81,17.5-18.66,35.43c-10.5,21.25-39.03,92.01,16.06,113.23
		c52.63,20.28,127.53-64.27,131.47-65.87c0,0-22.3,57.61,12.34,66.47c38.02,9.74,79.69-38.97,79.69-38.97s-8.77,36.55,20.84,39.97
		c53.04,6.14,146.85-129.51,146.85-129.51h-18.74c0,0-47.75,61.42-70.7,74.11c-22.97,12.7-14.72-9.87-8.47-19.93
		c7.96-12.83,109.39-182.3,109.39-182.3h-53.78l-6.25,9.87c0,0-11.08-16.91-29.61-15.71c-53.9,3.5-118.04,89.43-146.25,127.3
		c-28.21,37.88-89.04,110.19-121.06,97.29c-34.91-14.05-0.21-78.56,22.75-116.43c25.01-41.23,69.3-82.05,86.82-82.39
		c21.56-0.4,13.09,19.14,13.09,19.14s-16.11-2.02-27.79,12.69c-8.28,10.41-15.11,25.59-7.27,33.84c12.7,13.35,29.22-0.21,39.07-15.3
		c30.78-47.1,8.27-71.92-15.9-75.54c-51.48-7.73-98.91,58.4-134.96,82.99c-25.02,17.03-35.45,15.71-35.45,15.71
		s43.38-85.13-9.07-98.5L1162.8,910.85z M1395.87,1063.14c15.56-28.47,36.78-55.94,64.38-90.4c27.59-34.44,41.34-37.22,49.63-36.86
		c7,0.32,7.99,7.66,7.99,7.66s-59.95,104.47-81.72,134.29c-7.1,9.74-13.18,17.99-18.53,24.18c-11.45,13.21-19.77,19.6-26.19,21.19
		c-3.34,0.82-7.51,0.63-10.26-1.06c-9.77-5.95-2.33-27.89,14.7-59.01V1063.14z M1141.39,1029.22c-0.75,1.67-17.87,30.01-32.27,48.42
		c-15.51,19.83-44.17,49.82-61.24,43.51c-26.68-9.87,1.78-67.61,20.98-95.82c19.21-28.21,22.03-31.83,22.57-32.57
		s1.08-1.4,1.55-0.54c0.47,0.88,6.57,13.42,19.81,21.9c13.21,8.45,26.78,12.35,27.73,12.69c0.93,0.33,1.61,0.72,0.88,2.41H1141.39z
		 M1163.72,985.15c-4.97,12.98-9.41,21.17-10.32,23.12c-1.47,3.08-5.16,2.1-5.16,2.1c-4.2-0.2-36.87-7.65-36.67-33.82
		c0.18-25.51,36.12-50.5,50.24-39.82C1174.96,946.7,1168.68,972.15,1163.72,985.15L1163.72,985.15z"/>
	<path class="st2" d="M2391.59,1045.41h-53.79l-8.73,13.5c0,0-10.98-19.79-29.55-19.47c-31.83,0.55-63.69,24.85-100.73,67.01
		c-27.12,30.9-72.11,99.64-72.11,99.64s-34.51,53.19-51.97,49.01c-29.76-7.1,24.99-117.22,24.99-117.22s28.77-17.77,66.07-49.15
		c23.48-19.76,50.5-46.92,75.33-72.11c22.59-22.9,49.22-54.01,74.49-88.09c-6.48,1.03-13.1,1.71-19.87,2.05
		c-22.7,29.92-46.91,56.7-67.51,77.98c-30.66,31.69-58.86,57.59-79.37,74.12c-19.64,15.84-32.24,22.97-32.24,22.97
		s37.48-76.96,99.93-161.95c62.45-85.02,149.86-163.97,143.01-126.51c-1.94,10.76-8.64,26.19-18.74,44.5
		c7.11-1.48,14.02-3.34,20.68-5.44c15.05-31.05,20.16-56.65,8.93-64.03c-45.81-30.17-162.35,94.68-220.76,167.19
		c-58.41,72.53-111.29,183.33-111.29,183.33s-9.13,3.85-19.25,5.76c-6.38,1.21-9.09,0.94-10.14,0.53c-0.52-0.2-0.57-0.56-0.57-0.56
		s51.38-96.07-1.23-108.81c-50.76-12.3-138.74,81.63-170.01,146.97c-21.47,44.83-33.59,101.25,3.22,114.7
		c39.88,14.55,107.58-58.21,123.49-79.37c15.9-21.14,35.78-56.33,35.78-56.33s9.73-0.51,15.04-1.28
		c10.16-1.49,14.94-2.74,14.94-2.74s-6.61,17.25-13.74,39.13c-13.29,40.81-25.27,99.18,22.57,101.93
		c30.49,1.73,75.21-53.32,75.21-53.32s-12.03,48.94,27.53,53.32c29.2,3.22,71.73-41.92,71.73-41.92s-9.27,38.89,20.34,42.3
		c25.36,2.93,61.33-26.77,90.83-59.48c32.23-35.71,56.94-74.8,56.94-74.8h-18.74c0,0-41.47,62.93-70.57,79.76
		c-23.91,13.84-15.71-8.31-8.45-19.93c7.98-12.81,108.31-183.18,108.31-183.18V1045.41z M1981.81,1163.94
		c-0.75,1.68-14.2,25.1-28.6,43.52c-15.52,19.84-43.92,49.7-60.99,43.41c-26.68-9.88,2.69-68.03,21.89-96.24
		c19.21-28.21,21.39-30.12,21.92-30.84c0.56-0.74,1.09-1.41,1.57-0.54c0.45,0.87,6.56,12.47,18.64,22.51
		c12.12,10.09,23.76,15.42,24.72,15.76c0.93,0.33,1.61,0.74,0.87,2.41L1981.81,1163.94z M1993.82,1142.99
		c-1.69,2.81-2.89,2.95-6.38,2.01c-6.18-1.68-31.7-13.47-31.5-39.65c0.19-25.51,36.13-50.49,50.24-39.82
		c13.16,9.97,6.87,35.43,1.92,48.42C2003.14,1126.95,1994.92,1141.16,1993.82,1142.99L1993.82,1142.99z M2238.16,1206.09
		c-7.11,9.75-13.04,18.53-18.4,24.72c-11.45,13.21-18.92,19.39-25.58,21c-3.35,0.81-7.52,0.6-10.26-1.06
		c-9.77-5.94-2.93-29.1,14.09-60.23c15.55-28.45,33.54-56.93,63.11-89.71c29.67-32.9,41.04-34.48,49.35-34.1
		c6.99,0.31,7.99,7.65,7.99,7.65s-0.49,1.71-1.61,3.62C2307.05,1094.97,2257.71,1179.32,2238.16,1206.09L2238.16,1206.09z"/>
	<path class="st2" d="M2432.87,832.09c-37.79,24.31-90.19,46.33-140.47,41.49c-12.72,13.19-26.35,28.42-40.04,45.07
		c87.29,17.21,163.64-36.87,204.29-82.94c25.34-28.74,37.87-54.39,37.87-54.39s-24.2,26.67-61.64,50.76L2432.87,832.09z"/>
	<polygon class="st2" points="1678.16,916.09 1627,916.09 1598.16,962.86 1649.27,962.86 	"/>
	<path class="st2" d="M1810.83,1039.17c-26.78,2.21-74.13,26.18-99.92,78.56c-25.79,52.37-25.88,84.7-25.88,84.7
		s13.6-14.92,34.43-30.52c20.85-15.61,36.38-21.15,36.38-21.15s3.87-19.22,13.5-39.35c9.35-19.55,24.21-39.92,42.6-44.55
		c37.26-9.35,19.4,58.65-7.96,102.98c-14.71,23.84-66.88,92.33-111.8,92.33s-53.57-43.31-44.11-83.81
		c9.47-40.48,22.57-91.91,88.1-185.39c65.53-93.46,136.47-148.88,177.52-172.16c42.17-23.91,59.38-13.43,59.38-13.43
		s-53.85,33.17-84.48,73.07c-29.27,38.13-46.75,81.04-33.17,102.06c12.95,20.04,58.55,20.43,108.77-52.1
		c49.58-71.59,37.07-114.15,37.07-114.15s6-1.95,10.01-2.47c24.17-3.24,43.53,3.14,73.53,18.52c31.41,16.11,61.55,41.96,102.85,63.1
		c12.44-13.62,26.27-28.1,40.83-42.21c-55.68-27.1-97.95-65.72-152.56-69.42c-47.54-3.23-84.99,14.09-84.99,14.09
		s-14.51-19.74-59.24-13.29c-44.71,6.44-182.51,64.06-299.74,251.78c-105.99,169.76-56.05,267.03,20.15,265.92
		c82.57-1.22,161.15-93.07,187.73-168.81s-4.83-96.27-29.01-94.26L1810.83,1039.17z M1972.96,881.43
		c-13.86,33.84-34.31,57.48-54.42,75.54c-25.77,23.17-39.95,22.39-46.07,17.73c-16-12.17,5.47-58.13,42.73-99.22
		c37.12-40.93,69.06-53.66,69.06-53.66c0.02,0.48,5.32,19.05-11.31,59.62L1972.96,881.43z"/>
	<path class="st2" d="M1444.8,1247.24c-32.62-20.13-74.44-33.07-122.53-33.5c-123.82-1.06-258.64,59.08-349.97,59.9
		c-107.7,0.95-113.06-81.91-105.09-127.41c17.19-98.04,86.71-191.54,131.43-240.86c44.71-49.3,91.55-87.57,130.51-97.35
		c38.97-9.77,35.29,19.84,30.54,23.91c-4.92,0.09-14.36,1.15-19.72,4.85c-8.38,5.78-19.58,16.38-20.27,33.18
		c-1.21,25.88,32.24,30.41,56.41-23.77c16.5-36.96-9.66-62.03-31.38-64.46c-29.78-3.3-75.31,7.05-129.66,41.97
		c-94.58,60.77-221.08,195.73-224.3,345.46c-1.84,85.42,53.95,133.5,130.52,133.5s180.53-46.89,282.02-48.09
		c62.84-0.53,103.52,21.49,124.13,57.35c0,0,20.46-34.05,66.05-35.86c45.1-1.81,94.76,10.82,135.5,39.47
		C1515.39,1295.87,1476.96,1267.1,1444.8,1247.24L1444.8,1247.24z"/>
	<g>
		<defs>
			<path id="SVGID_1_" d="M1642.6,195.56h0.01c549.79,0,995.49,445.7,995.49,995.49v0.01c0,549.79-445.7,995.49-995.49,995.49h-0.01
				c-549.79,0-995.49-445.7-995.49-995.49v-0.01C647.11,641.25,1092.81,195.56,1642.6,195.56z"/>
		</defs>
		<clipPath id="SVGID_00000145737051658160663110000002589388638323313320_">
			<use xlink:href="#SVGID_1_"  style="overflow:visible;"/>
		</clipPath>
		<g style="clip-path:url(#SVGID_00000145737051658160663110000002589388638323313320_);">
			<path class="st2" d="M2638.11,1418.96c-89.05-9.76-197.41,7.64-311.34,33.97c-167.69,38.73-494.45,134.62-868.58,112.36
				c-237.33-14.12-490.72-76.05-737.5-229.98l-73.58-44.34v243.57l73.98,26.92c98.15,39.29,223.7,75.01,412.18,82.41
				c243.62,9.61,513.17-45.84,771.07-90.92c273.17-47.75,531.63-83.58,733.76-17.94v-116.05H2638.11z"/>
		</g>
	</g>
</g>
</svg>
