<?xml version="1.0" encoding="utf-8"?><!-- Uploaded to: SVG Repo, www.svgrepo.com, Generator: SVG Repo Mixer Tools -->
<svg width="800px" height="800px" viewBox="-0.5 0 25 25" fill="none" xmlns="http://www.w3.org/2000/svg">
<path d="M12 21.82C17.1086 21.82 21.25 17.6786 21.25 12.57C21.25 7.46137 17.1086 3.32001 12 3.32001C6.89137 3.32001 2.75 7.46137 2.75 12.57C2.75 17.6786 6.89137 21.82 12 21.82Z" stroke="#000000" stroke-width="1.5" stroke-linecap="round" stroke-linejoin="round"/>
<path d="M15.5291 9.03003C14.5937 8.09167 13.3241 7.56293 11.9991 7.56C11.1771 7.55982 10.3677 7.76234 9.6426 8.1496C8.9175 8.53685 8.29908 9.09687 7.84206 9.78015C7.38504 10.4634 7.10349 11.2489 7.02242 12.0669C6.94135 12.8849 7.06326 13.7103 7.37728 14.47C7.69129 15.2297 8.18779 15.9003 8.82277 16.4223C9.45776 16.9443 10.2116 17.3018 11.0177 17.463C11.8238 17.6241 12.6571 17.584 13.444 17.3463C14.231 17.1086 14.9471 16.6805 15.5291 16.1" stroke="#000000" stroke-width="1.5" stroke-linecap="round" stroke-linejoin="round"/>
</svg>