<?xml version="1.0" encoding="utf-8"?>
<!-- Generator: Adobe Illustrator 25.0.1, SVG Export Plug-In . SVG Version: 6.00 Build 0)  -->
<svg version="1.0" id="Layer_1" xmlns="http://www.w3.org/2000/svg" xmlns:xlink="http://www.w3.org/1999/xlink" x="0px" y="0px"
	 viewBox="0 0 232 143" style="enable-background:new 0 0 232 143;" xml:space="preserve">
<style type="text/css">
	.st0{fill:none;}
</style>
<path d="M26.9,47.4h23.3c20,0,27.9,11.8,27.9,24.2c0,12.7-10,23.9-29.2,23.9H26.9c-0.3,0-0.5-0.1-0.5-0.4c0,0,0,0,0-0.1
	c0-0.2,0.3-0.5,0.6-0.5h4.1c1.1,0.1,2-0.8,2.1-1.9c0-0.1,0-0.2,0-0.3V50.6c0.1-1.1-0.7-2.1-1.8-2.2c-0.1,0-0.3,0-0.4,0h-4.2
	c-0.3,0-0.5-0.2-0.5-0.4c0,0,0,0,0-0.1C26.3,47.7,26.4,47.4,26.9,47.4 M41.4,93.3c0,1,0.5,1.4,1.2,1.4h6.2
	c15.2,0,20.7-11.6,20.7-23.3s-5.8-23-18.7-23h-8.4c-0.5,0-0.9,0.4-1,0.9c0,0.1,0,0.1,0,0.2L41.4,93.3z M80.3,47.4
	c-0.4,0-0.7,0.2-0.7,0.4c0,0.2,0.2,0.5,0.4,0.5c0,0,0.1,0,0.1,0h4.1c0.9,0,1.8,0.7,1.8,2.5v41.7c0,0.9-0.7,2.2-1.8,2.2h-4.1
	c-0.3,0-0.5,0.2-0.5,0.4c0,0,0,0.1,0,0.1c0,0.2,0,0.4,0.5,0.4H100c0.3,0,0.7,0,0.7-0.3s-0.1-0.6-0.6-0.6h-3.9c-1.1,0-2-0.9-2-2V50.3
	c-0.1-1,0.7-1.9,1.8-2c0.1,0,0.2,0,0.4,0h3.7c0.3,0,0.5-0.2,0.5-0.4s-0.2-0.5-0.6-0.5L80.3,47.4L80.3,47.4z M111.2,71.5
	c0-13.3,5.9-24.1,17.1-24.1c11,0,17.1,10.8,17.1,24.1s-5.6,24.1-17.1,24.1C117.1,95.6,111.2,84.8,111.2,71.5 M128.3,96.6
	c15.9,0,25.9-11.2,25.9-25s-9.9-25.1-25.9-25.1s-25.9,11.2-25.9,25S112.7,96.6,128.3,96.6 M204.9,95.2c-6.2,0.7-9.7-9.6-12.8-14.4
	c-2.9-4.2-7.3-7-12.3-8c8.1-0.5,17.2-3.1,17.2-12.3c0-7.5-4.6-13.1-21.5-13.1h-19.4c-0.3,0-0.5,0.2-0.5,0.4c0,0,0,0,0,0
	c0,0.3,0.2,0.5,0.5,0.5c0,0,0,0,0,0h4.5c0.9,0,1.8,0.7,1.8,2.5v41.7c0,0.9-0.6,2.2-1.8,2.2h-4.4c-0.3,0-0.5,0.2-0.5,0.4
	c0,0.3,0.2,0.5,0.5,0.5h20.7c0.3,0,0.6-0.1,0.6-0.4s-0.2-0.5-0.6-0.5h-4.2c-1.1,0-2-0.9-2-2V72.9h2.1c10.2,0,11,11.1,16.1,17.4
	c3.2,4,8.1,6.3,13.2,6.1c1.1,0,2.1,0,3.2-0.2C205.8,96.1,205.9,95.1,204.9,95.2 M172.6,48.3h3c5.1,0,13.5,2,13.5,11.8
	c0,8.9-7.4,11.9-14.2,11.9h-4.4V50.3c-0.1-1.1,0.8-2,1.8-2C172.4,48.3,172.5,48.3,172.6,48.3"/>
<rect x="21" y="41" class="st0" width="190" height="61"/>
</svg>
