<svg class="svg-icon" style="width: 1em; height: 1em;vertical-align: middle;fill: currentColor;overflow: hidden;" viewBox="0 0 1024 1024" version="1.1" xmlns="http://www.w3.org/2000/svg"><path d="M441.107692 417.476923c0 11.815385 3.938462 23.630769 11.815385 31.507692s19.692308 15.753846 39.384615 23.63077V370.215385c-15.753846 3.938462-31.507692 7.876923-39.384615 15.753846-7.876923 7.876923-11.815385 19.692308-11.815385 31.507692zM531.692308 555.323077v98.461538c35.446154-3.938462 55.138462-19.692308 55.138461-47.261538 0-11.815385-3.938462-23.630769-11.815384-31.507692s-23.630769-11.815385-43.323077-19.692308z" fill="#b3cbd0" /><path d="M512 78.769231C271.753846 78.769231 78.769231 271.753846 78.769231 512s192.984615 433.230769 433.230769 433.230769 433.230769-192.984615 433.230769-433.230769S752.246154 78.769231 512 78.769231z m118.153846 602.584615c-23.630769 19.692308-55.138462 31.507692-94.523077 35.446154v66.953846h-43.323077v-66.953846c-51.2 0-94.523077-7.876923-126.030769-23.630769v-66.953846c19.692308 7.876923 39.384615 15.753846 63.015385 23.630769 23.630769 7.876923 47.261538 7.876923 63.015384 7.876923v-118.153846l-27.56923-7.876923c-35.446154-11.815385-59.076923-27.569231-74.83077-47.261539-15.753846-19.692308-23.630769-39.384615-23.630769-66.953846s11.815385-51.2 35.446154-70.892308 51.2-31.507692 90.584615-35.446153V259.938462h43.323077v51.2c43.323077 0 82.707692 11.815385 122.092308 27.56923L630.153846 393.846154c-31.507692-11.815385-66.953846-19.692308-98.461538-23.630769v114.215384l23.630769 7.876923c39.384615 15.753846 66.953846 31.507692 82.707692 47.261539 15.753846 15.753846 23.630769 39.384615 23.630769 63.015384 0 31.507692-11.815385 59.076923-31.507692 78.769231z" fill="#b3cbd0" /></svg>