<svg xmlns="http://www.w3.org/2000/svg" xmlns:xlink="http://www.w3.org/1999/xlink" viewBox="0 0 500 500"><defs><clipPath id="freepik--clip-path--inject-3"><path d="M183.84,408.51,173,414.77a3.24,3.24,0,0,1-2.94,0l-13.23-7.54a.89.89,0,0,1,0-1.69l10.84-6.26a3.24,3.24,0,0,1,2.94,0c3.58,2.07,9.64,5.46,13.22,7.54A.89.89,0,0,1,183.84,408.51Z" style="fill:#025464"></path></clipPath></defs><g id="freepik--Floor--inject-3"><ellipse id="freepik--floor--inject-3" cx="249.81" cy="337.53" rx="238.19" ry="137.52" style="fill:#f5f5f5"></ellipse></g><g id="freepik--Cart--inject-3"><g id="freepik--cart--inject-3"><path d="M298.2,308.63a14.86,14.86,0,0,0-6.66-11.7c-1.94-1.14-3.69-1.19-4.93-.38h0l-4.55,2.56,9.55,16.47,4.51-2.56h0C297.38,312.33,298.18,310.82,298.2,308.63Z" style="fill:#37474f"></path><path d="M286.81,299.61a14.91,14.91,0,0,1,6.66,11.7c0,4.3-3.06,6-6.76,3.85a14.91,14.91,0,0,1-6.66-11.7C280.08,299.16,283.11,297.44,286.81,299.61Z" style="fill:#455a64"></path><path d="M284.49,306.06c0-1.68,1-2.45,2.29-1.71a5.43,5.43,0,0,1,2.25,4.37c0,1.68-1,2.44-2.29,1.71A5.48,5.48,0,0,1,284.49,306.06Z" style="fill:#263238"></path><path d="M293.47,311.31a12.35,12.35,0,0,0-.92-4.5L281,300.1a5.78,5.78,0,0,0-.94,3.36c0,.05,0,.1,0,.16l13.4,7.78S293.47,311.34,293.47,311.31Z" style="opacity:0.15"></path><path d="M250.32,345.22a14.41,14.41,0,0,1-7.12-1.28l-63-36.31c-3.81-1.92-8.09-6.9-8.36-11.62l-1.93-44.91,3.51-.2,1.94,44.92c.18,3.2,3.53,7.22,6.41,8.66l63.05,36.32a12.11,12.11,0,0,0,10.58-.61l42-24.22c1-.66,1.59-1.45,1.55-2.12s-.67-1.33-1.74-1.87L229.72,272.8c-3.8-1.91-8.06-6.9-8.33-11.62l-.94-24.91,3.51-.19.94,24.9c.18,3.22,3.53,7.23,6.4,8.67l67.49,39.19c2.25,1.13,3.55,2.84,3.67,4.81s-1,3.88-3.13,5.26l-42,24.22A14.57,14.57,0,0,1,250.32,345.22Z" style="fill:#455a64"></path><path d="M239,344.21a14.86,14.86,0,0,0-6.66-11.7c-1.94-1.14-3.69-1.2-4.92-.38h0l-4.56,2.56,9.55,16.47,4.51-2.56v0C238.16,347.91,239,346.4,239,344.21Z" style="fill:#37474f"></path><path d="M227.59,335.19a14.86,14.86,0,0,1,6.66,11.71c0,4.29-3.05,6-6.76,3.84a14.88,14.88,0,0,1-6.65-11.7C220.87,334.75,223.89,333,227.59,335.19Z" style="fill:#455a64"></path><path d="M225.27,341.64c0-1.68,1-2.45,2.29-1.71a5.41,5.41,0,0,1,2.25,4.37c0,1.67-1,2.44-2.28,1.7A5.44,5.44,0,0,1,225.27,341.64Z" style="fill:#263238"></path><path d="M192.42,317.36a14.86,14.86,0,0,0-6.63-11.71c-1.95-1.14-3.69-1.2-4.93-.39h0l-4.56,2.55,9.52,16.49,4.52-2.56h0C191.6,321.06,192.4,319.55,192.42,317.36Z" style="fill:#37474f"></path><path d="M181.05,308.33A14.88,14.88,0,0,1,187.69,320c0,4.29-3.07,6-6.77,3.83a14.86,14.86,0,0,1-6.63-11.71C174.32,307.86,177.35,306.15,181.05,308.33Z" style="fill:#455a64"></path><path d="M178.72,314.76c0-1.67,1-2.44,2.29-1.7a5.45,5.45,0,0,1,2.25,4.37c0,1.68-1,2.44-2.3,1.71A5.49,5.49,0,0,1,178.72,314.76Z" style="fill:#263238"></path><path d="M162.38,196.68a11.71,11.71,0,0,1,4.49-12.46l41.91-23.69c3.81-2.5,8-.76,9.32,3.59l2.91,9.43-2.88,1.68L215,165.7a3.17,3.17,0,0,0-5-1.75L169.19,187a7.69,7.69,0,0,0-2.93,8l2.46,9.05-3.43,2Z" style="fill:#455a64"></path><polygon points="227.18 242.12 170.88 274.63 253.16 322.13 309.46 289.62 227.18 242.12" style="fill:#025464"></polygon><polygon points="227.18 242.12 170.88 274.63 253.16 322.13 309.46 289.62 227.18 242.12" style="opacity:0.5"></polygon><polygon points="165.29 206.11 221.01 173.56 227.18 242.12 170.88 274.63 165.29 206.11" style="fill:#025464"></polygon><polygon points="165.29 206.11 221.01 173.56 227.18 242.12 170.88 274.63 165.29 206.11" style="opacity:0.35000000000000003"></polygon><path d="M221,173.56l6.17,68.56,82.28,47.5,13-57.51Zm28.77,65.92a4.73,4.73,0,0,1-5.9-3.06l-13.6-35.29A4.44,4.44,0,1,1,238.5,198l13.6,35.29A4.72,4.72,0,0,1,249.78,239.48Zm25.69,12.08a4.71,4.71,0,0,1-5.9-3.05L256,213.22a4.44,4.44,0,1,1,8.22-3.17l13.6,35.29A4.71,4.71,0,0,1,275.47,251.56Zm25.69,12.09a4.71,4.71,0,0,1-5.9-3l-13.59-35.29a4.43,4.43,0,1,1,8.21-3.17l13.6,35.29A4.71,4.71,0,0,1,301.16,263.65Z" style="fill:#025464"></path><path d="M221,173.56l6.17,68.56,82.28,47.5,13-57.51Zm28.77,65.92a4.73,4.73,0,0,1-5.9-3.06l-13.6-35.29A4.44,4.44,0,1,1,238.5,198l13.6,35.29A4.72,4.72,0,0,1,249.78,239.48Zm25.69,12.08a4.71,4.71,0,0,1-5.9-3.05L256,213.22a4.44,4.44,0,1,1,8.22-3.17l13.6,35.29A4.71,4.71,0,0,1,275.47,251.56Zm25.69,12.09a4.71,4.71,0,0,1-5.9-3l-13.59-35.29a4.43,4.43,0,1,1,8.21-3.17l13.6,35.29A4.71,4.71,0,0,1,301.16,263.65Z" style="opacity:0.23"></path><path d="M165.29,206.11l5.59,68.52,82.28,47.5,13-57.5Zm32.48,67.45a4.73,4.73,0,0,1-5.9-3.06l-13.59-35.29a4.43,4.43,0,1,1,8.21-3.16l13.6,35.28A4.72,4.72,0,0,1,197.77,273.56Zm25.69,12.08a4.71,4.71,0,0,1-5.9-3.05L204,247.3a4.44,4.44,0,1,1,8.22-3.17l13.59,35.29A4.71,4.71,0,0,1,223.46,285.64Zm25.69,12.09a4.7,4.7,0,0,1-5.89-3.05l-13.6-35.29a4.44,4.44,0,1,1,8.22-3.17l13.59,35.29A4.71,4.71,0,0,1,249.15,297.73Z" style="fill:#025464"></path><g style="opacity:0.15"><path d="M165.29,206.11l5.59,68.52,82.28,47.5,13-57.5Zm32.48,67.45a4.73,4.73,0,0,1-5.9-3.06l-13.59-35.29a4.43,4.43,0,1,1,8.21-3.16l13.6,35.28A4.72,4.72,0,0,1,197.77,273.56Zm25.69,12.08a4.71,4.71,0,0,1-5.9-3.05L204,247.3a4.44,4.44,0,1,1,8.22-3.17l13.59,35.29A4.71,4.71,0,0,1,223.46,285.64Zm25.69,12.09a4.7,4.7,0,0,1-5.89-3.05l-13.6-35.29a4.44,4.44,0,1,1,8.22-3.17l13.59,35.29A4.71,4.71,0,0,1,249.15,297.73Z"></path></g><polygon points="266.15 264.63 322.45 232.12 309.46 289.63 253.16 322.13 266.15 264.63" style="fill:#025464"></polygon><polygon points="266.15 264.63 322.45 232.12 309.46 289.63 253.16 322.13 266.15 264.63" style="opacity:0.4"></polygon></g></g><g id="freepik--Arrow--inject-3"><g id="freepik--arrow--inject-3"><polygon points="286.43 140.48 279.93 144.29 279.95 124.6 276.01 122.33 258.17 132.63 258.14 156.92 247.74 162.81 271.02 177.91 290.37 142.75 286.43 140.48" style="fill:#37474f"></polygon><polygon points="262.11 134.9 262.08 159.19 251.68 165.09 271.02 177.91 290.37 142.75 279.92 148.89 279.95 124.6 262.11 134.9" style="fill:#455a64"></polygon><polygon points="258.17 132.63 262.11 134.9 262.08 159.19 258.14 156.92 258.17 132.63" style="fill:#263238"></polygon></g></g><g id="freepik--Character--inject-3"><g id="freepik--character--inject-3"><path d="M387.24,122.1c-2.91,6.26-7.89,16.62-10.62,22.36l-10.68-12.58h-9s10.8,23,17.24,28.38a5.08,5.08,0,0,0,7.37-.44,95,95,0,0,0,7.23-10c5.1-7.88,7.38-11.28,7.38-11.28l6.42-27C397,111.12,391.28,113.41,387.24,122.1Z" style="fill:#ffa8a7"></path><path d="M403.65,111.51c-3.43-.13-7.16-.56-10.43,2.3a26.6,26.6,0,0,0-7.14,10c-2.21,5.2-5.63,11.79-5.63,11.79a28.75,28.75,0,0,0,6.4,6.68,16.21,16.21,0,0,0,7.69,3.23Z" style="fill:#025464"></path><path d="M403.65,111.51c-3.43-.13-7.16-.56-10.43,2.3a26.6,26.6,0,0,0-7.14,10c-2.21,5.2-5.63,11.79-5.63,11.79a28.75,28.75,0,0,0,6.4,6.68,16.21,16.21,0,0,0,7.69,3.23Z" style="opacity:0.45"></path><path d="M376.62,144.46a38.18,38.18,0,0,1,3.29,4.48s-1.15-4.24-2.71-5.69Z" style="fill:#f28f8f"></path><path d="M354.27,115.17h0l.85-.89h0a1.07,1.07,0,0,1,.95-.2l10.34,1.76a3.71,3.71,0,0,1,2.47,1.89l9.3,20.21a1,1,0,0,1,0,1.09h0l-.88.92h0a1.06,1.06,0,0,1-1,.2L366,138.4a3.72,3.72,0,0,1-2.47-1.9l-9.3-20.21C354,115.79,354,115.39,354.27,115.17Z" style="fill:#455a64"></path><path d="M377.3,138.85,368,118.63a3.73,3.73,0,0,0-2.47-1.89L355.19,115c-1-.16-1.4.42-1,1.31l9.3,20.21a3.72,3.72,0,0,0,2.47,1.9l10.34,1.75C377.26,140.32,377.71,139.73,377.3,138.85Z" style="fill:#263238"></path><path d="M366.69,117.21a3.66,3.66,0,0,1,1.32,1.43l9.3,20.2a1,1,0,0,1,0,1.06l.83-.86h0a1,1,0,0,0,0-1.08l-9.3-20.21a3.46,3.46,0,0,0-1.22-1.35Z" style="fill:#37474f"></path><path d="M359.16,135.16c-4.28-4.91-4.16-11.06-2.19-12.84l1.3,2.84s6.55,1.46,9.7,1.22,5.72-1,6.58-.38c1.83,1.29,2.36,6.77-2.88,8.77C367.22,136.46,359.16,135.16,359.16,135.16Z" style="fill:#ffa8a7"></path><g id="freepik--Botom--inject-3"><path d="M434.41,296.51c-2.77,1.49-6.14,1.37-9.42,0l-1.37-17.92L434.41,280Z" style="fill:#ffa8a7"></path><path d="M401.34,285.8c-2.33,5.05-6.55,3.65-11.3.42l.84-18h11.45Z" style="fill:#ffa8a7"></path><path d="M414.23,313.47a4.11,4.11,0,0,0,.12,2.77c.36.56,2.42,2.33,6.16,2.59,3.57.26,6.76-.22,8.85-1.55s3.11-2.8,3.31-4.83,0-4,.94-5.57,2.32-3.07,2.63-3.85a7.88,7.88,0,0,0,0-4.14Z" style="fill:#263238"></path><path d="M424,295.72a9.91,9.91,0,0,1-.43,2.26,21.13,21.13,0,0,1-2.19,4.48,20.46,20.46,0,0,1-1.49,2.1c-1.08,1.28-2.42,2.33-3.56,3.57a7.25,7.25,0,0,0-2.21,4.38c-.15,2.8,2.89,3.75,5.23,4.17a17.27,17.27,0,0,0,7.6-.38,7,7,0,0,0,5.12-5.58c.13-.78.08-1.58.18-2.36a11.09,11.09,0,0,1,2.17-4.9,14.28,14.28,0,0,0,1.67-2.66c.73-1.74.15-3.69-.32-5.41-.4-1.49-.86-3.18-1.38-3a1.85,1.85,0,0,1-.13.9,4,4,0,0,0-.41.88,6.89,6.89,0,0,1-.42,1.15,3,3,0,0,1-1.25,1.37c0-1-.07-2.11-.1-3.17a1.48,1.48,0,0,0-.24-.93,1.51,1.51,0,0,0-.9-.39,19.55,19.55,0,0,0-6-.49,1,1,0,0,0-.8.35,1.16,1.16,0,0,0-.14.71A27.08,27.08,0,0,1,424,295.72Z" style="fill:#37474f"></path><path d="M421,303c1-.78,3.38-.79,4.66-.65a7.77,7.77,0,0,1,3.63,1.27.83.83,0,0,0,1.07-.08h0a.79.79,0,0,0-.08-1.19,7.88,7.88,0,0,0-4.09-1.52c-3.14-.22-4.06.32-4.06.32S420.71,302.11,421,303Z" style="fill:#f5f5f5"></path><path d="M418.62,305.91c1.32-.77,3.88-.66,5.16-.53a7.35,7.35,0,0,1,3.53,1.35.82.82,0,0,0,1.07-.09h0a.77.77,0,0,0-.08-1.19,8.19,8.19,0,0,0-4.17-1.63c-3.14-.22-4,.42-4,.42A2.6,2.6,0,0,0,418.62,305.91Z" style="fill:#f5f5f5"></path><path d="M427.46,297.87a7.65,7.65,0,0,0-3.95.33c-.55.31-.92,1.18-.56,1.4a7.34,7.34,0,0,1,3.5-.48,10.45,10.45,0,0,1,3.4.94c.27.12.59.28.87.44a.74.74,0,0,0,1-.32h0a.69.69,0,0,0-.27-.9A10.05,10.05,0,0,0,427.46,297.87Z" style="fill:#f5f5f5"></path><path d="M371.28,297.32a3.39,3.39,0,0,0,.14,2.49c.35.73,4.16,2.88,9.3,2.53a21.31,21.31,0,0,0,10.62-3.71c2-1.3,4-1.54,6.54-1.69s5.89-1.41,6.44-2.6a5.63,5.63,0,0,0-.08-3.24Z" style="fill:#263238"></path><path d="M391.93,281.52,390.6,281a1.07,1.07,0,0,0-.76-.08c-.33.12-.46.51-.55.85a12.77,12.77,0,0,1-.56,2.23,5.45,5.45,0,0,1-1.44,1.51,23.42,23.42,0,0,1-4.11,2.65c-1.68.9-3.32,1.6-5.06,2.38s-4.11,1.28-5.49,2.22c-2,1.36-2.28,4.77,0,6.12,2,1.16,7.19,2.42,12.66.87,3-.84,6.28-4,10.19-4.33,2.49-.19,7.19-.89,8.79-2.78.59-.84-.2-3.49-.84-5.78-.71-2.51-1-6.42-1.81-6.2-.06.83-.78,1.32-1.22,2a15.46,15.46,0,0,0-.89,2,3.59,3.59,0,0,1-1.3,1.71,1.65,1.65,0,0,1-2-.11c-.73-.76-.3-2.09-.83-3a3.09,3.09,0,0,0-1.75-1.15Z" style="fill:#37474f"></path><path d="M385.5,286.84a2.33,2.33,0,0,1,1.84-1.23c1.13-.21,3.13.62,4.37,1.65a.92.92,0,0,1-.14,1.53h0a.92.92,0,0,1-1.06-.12A7.09,7.09,0,0,0,385.5,286.84Z" style="fill:#f5f5f5"></path><path d="M382,288.8a2.66,2.66,0,0,1,2.18-1.12,8.31,8.31,0,0,1,4.78,1.79.9.9,0,0,1-.12,1.48h0a.87.87,0,0,1-1-.11A7.11,7.11,0,0,0,382,288.8Z" style="fill:#f5f5f5"></path><path d="M378.12,290.57a3,3,0,0,1,2.26-1,7.92,7.92,0,0,1,4.58,1.81.9.9,0,0,1-.12,1.48h0a.89.89,0,0,1-1-.12A6.82,6.82,0,0,0,378.12,290.57Z" style="fill:#f5f5f5"></path><path d="M433,161.62c.64,19.61.59,67,.59,67,.21,2.44,1.2,7.45,2,17.21,1.06,12.71-1.23,40.64-1.23,40.64a13,13,0,0,1-10.24.06S418,246.76,416.1,234.2c-1.71-11-5.06-35.84-5.06-35.84l-3.87,32.24a65.85,65.85,0,0,1-.39,16.12c-.9,5.78-4.9,29.54-4.9,29.54a20.26,20.26,0,0,1-11.36-.43s-.37-41.17-.48-46.52c-.11-6.11,2.71-72.53,2.71-72.53Z" style="fill:#37474f"></path><path d="M411,198.36l-2.9-16.07s-8-.7-12.48-5.18c0,0,.79,4.39,10.9,7l2.89,16.26-2.28,30.2Z" style="fill:#263238"></path></g><path d="M393.74,126.61c.86-6.28,1.69-14.72,11.42-15.11l12.56.6c3.09.81,15.11,2.23,15.11,2.23l.23,27.24s.76,19.64.53,30.15c-9,5.7-28.55,7.55-40.84-1.78C392.38,161.27,392.88,132.83,393.74,126.61Z" style="fill:#fafafa"></path><path d="M395.35,79.19a12.43,12.43,0,0,0,5.5,17.37l-2.26,1.56,22.58,2-.29,5.44a4.06,4.06,0,0,0,2.41-1.82c.81-1.45,3-10.35,3-10.35,2.12-4.86,3.16-9.86,1.64-11.52a4.24,4.24,0,0,0-2.25-1.3l3-1.51a2.41,2.41,0,0,0-3.27-1.19,2.48,2.48,0,0,0-.68.51,6.31,6.31,0,0,0,.15-1,4.44,4.44,0,0,0-.67-2.83,5.3,5.3,0,0,0-1.59-1.39c-2.54-1.59-5.55-2.18-8.38-3.18-1.6-.57-3.15-1.27-4.73-1.91a6,6,0,0,0-3.32-.6A2.2,2.2,0,0,0,404.38,70a4.26,4.26,0,0,0-4.66-.71,3.71,3.71,0,0,0-2.28,3.68,4.59,4.59,0,0,0-3.06.3,2.64,2.64,0,0,0-1.49,2.54A6.07,6.07,0,0,0,395.35,79.19Z" style="fill:#37474f"></path><path d="M411.25,82.37c2.08-.25,4.14-.59,6.2-.91a.69.69,0,0,1,.55.07.56.56,0,0,1,.17.31c1.36,4,1.32,8.25,2.4,12.28.1.37.33,1,.77,1,.8.09,1.35-.62,1.69-1.24l.77-1.39a3.62,3.62,0,0,1,.57-.71c1-.89,3.83-2,5.16,1.06s-1.52,7.18-3.82,7.82c-4,1.11-4.49-1.44-4.49-1.44l-.76,14.2c-3.52,3.68-15.09,2.4-12.8-.8l.15-4.32a24.55,24.55,0,0,1-5.32.1c-2.88-.54-4.62-2.88-5.4-6-1.25-5.08-1.11-11.29-.13-19a10.58,10.58,0,0,1,.71-2.66C401.72,83,406.65,82.92,411.25,82.37Z" style="fill:#ffa8a7"></path><path d="M407.81,108.35s6.51-1.09,8.81-2.22a7.44,7.44,0,0,0,3.22-3,10.26,10.26,0,0,1-1.89,3.59c-1.72,2.06-10.19,3.34-10.19,3.34Z" style="fill:#f28f8f"></path><path d="M408.74,92.33a1.39,1.39,0,1,0,1.43-1.4A1.42,1.42,0,0,0,408.74,92.33Z" style="fill:#263238"></path><path d="M410.67,86.55l2.91,1.25a1.66,1.66,0,0,0-.85-2.13A1.55,1.55,0,0,0,410.67,86.55Z" style="fill:#263238"></path><path d="M410.42,99.88l-4.56,1.55a2.36,2.36,0,0,0,3,1.59A2.52,2.52,0,0,0,410.42,99.88Z" style="fill:#b16668"></path><path d="M408.87,103a2.45,2.45,0,0,0,1.58-1.74,2,2,0,0,0-2.86,1.79A2.24,2.24,0,0,0,408.87,103Z" style="fill:#f28f8f"></path><path d="M397.18,87.72l2.9-1.11a1.5,1.5,0,0,0-2-.88A1.59,1.59,0,0,0,397.18,87.72Z" style="fill:#263238"></path><path d="M398.2,92.33a1.4,1.4,0,1,0,1.44-1.41A1.43,1.43,0,0,0,398.2,92.33Z" style="fill:#263238"></path><path d="M405,91.9l-.21,7.68-4.28-1.24,4-6.5A1.15,1.15,0,0,1,405,91.9Z" style="fill:#f28f8f"></path><path d="M392.21,134.42c.33-7.95,1-15,3.92-18.71s4.55-4.44,11.57-4.33l0,.48a2.6,2.6,0,0,0-2,1.15,41.4,41.4,0,0,0-5.4,12c-2,7.73-2.39,25-2.5,34.29s0,16.79,0,16.79-4.7-1.1-6.15-3.45C391.65,172.64,391.87,142.38,392.21,134.42Z" style="fill:#025464"></path><path d="M392.21,134.42c.33-7.95,1-15,3.92-18.71s4.55-4.44,11.57-4.33l0,.48a2.6,2.6,0,0,0-2,1.15,41.4,41.4,0,0,0-5.4,12c-2,7.73-2.39,25-2.5,34.29s0,16.79,0,16.79-4.7-1.1-6.15-3.45C391.65,172.64,391.87,142.38,392.21,134.42Z" style="opacity:0.35000000000000003"></path><path d="M416.48,121.76c1-4.24,3.07-7,4-9.19l8.78,1.24c3.23,1.49,7.43,5,7.12,8.6l-2.3,26.06.64,24.68c-5,7.79-20,6.35-20,6.35s-.43-11.1.05-32.54C415.07,134.94,415.21,127.16,416.48,121.76Z" style="fill:#025464"></path><path d="M416.48,121.76c1-4.24,3.07-7,4-9.19l8.78,1.24c3.23,1.49,7.43,5,7.12,8.6l-2.3,26.06.64,24.68c-5,7.79-20,6.35-20,6.35s-.43-11.1.05-32.54C415.07,134.94,415.21,127.16,416.48,121.76Z" style="opacity:0.35000000000000003"></path><path d="M416.07,123.85c.58-2.72.89-7.78,1.37-8.8s3.09-3,3.19-4.41l0-.89a4.42,4.42,0,0,1,2.2,1.13c.82.73,3.24,2.42,3.24,2.42a11.06,11.06,0,0,1-1.82,4.68c-1.44,2.07-3.44,3.42-3.75,2.91s-.26-1.29-.79-2.49c-.66-1.51-.82-2.15-1.52-.66C417.67,118.93,416.07,123.85,416.07,123.85Z" style="fill:#37474f"></path><path d="M401.1,122.36c-.71,2.3,1.16-7.94,2.38-9.74s4.32-2.51,4.32-2.51l-.13,2.21a3.35,3.35,0,0,0-2,1.38A37.49,37.49,0,0,0,401.1,122.36Z" style="fill:#37474f"></path><path d="M415.75,126a189.89,189.89,0,0,1,20,3.13l-.07.74a188.49,188.49,0,0,0-20.05-3.14C415.7,126.51,415.72,126.26,415.75,126Z" style="fill:#025464"></path><path d="M392.83,125.86c2.19-.26,4.68-.49,7.41-.62l-.18.75c-2.7.13-5.16.36-7.31.62C392.77,126.36,392.8,126.1,392.83,125.86Z" style="fill:#025464"></path><path d="M452.76,148.94c-9.38-23.82-11.43-31.23-18.05-34a17.8,17.8,0,0,0-5.45-1.16c-1.63,3-4,14.52,3.82,22.54,0,0,5.68,14,8.54,20.62-.09,6.66.39,12.21-1.64,21.21a6,6,0,0,1-2.26,3c-2.38,1.31-2.78,2.79-4.54,4.48-1.37,1.32-2.57,1.63-2.37,2.07a2.58,2.58,0,0,0,3,1.06,22.32,22.32,0,0,0,3.69-1.93c.23.27-2,3.82-4.31,6.41-3.43,3.81-4.26,6.56,2.59,6.83,4.29.17,8.92-3.35,11.83-11.9.57-1.69,1.17-4.13,1.78-6.51.44-1,3.58-17.06,4.24-22C454.51,153.56,454.29,152.81,452.76,148.94Z" style="fill:#ffa8a7"></path><path d="M428.09,113.81a13.6,13.6,0,0,1,8.31,1.46c3.71,2.24,5,4.2,9.47,14.62s5.35,12.43,5.35,12.43-2,5.94-13.94,6.62l-5.35-12.2s-4.44-5.53-4.85-12.36S428.09,113.81,428.09,113.81Z" style="fill:#025464"></path><path d="M428.09,113.81a13.6,13.6,0,0,1,8.31,1.46c3.71,2.24,5,4.2,9.47,14.62s5.35,12.43,5.35,12.43-2,5.94-13.94,6.62l-5.35-12.2s-4.44-5.53-4.85-12.36S428.09,113.81,428.09,113.81Z" style="opacity:0.45"></path></g></g></svg>