<?xml version="1.0" encoding="UTF-8"?>
<svg xmlns="http://www.w3.org/2000/svg" width="41" height="41"><path fill="#FFF" stroke="#E82" d="M1 .5h35v40H1V.5z"/><path stroke="#333" d="M5 7h27m0 4H5m0 4h15m12 6H5m0 4h27m0 4H5m0 4h9"/><path fill="#DD0" stroke="#000" stroke-width=".5" d="M37.07 1.35 17.21 32.14l-2.05 4.92 4.67-4.25L39.65 3.07z"/><path fill="#FA3" d="m17.42 32.27-1.59 3.83h.01l3.82-3.46-1.73-1.16z"/><path d="m16.74 35.29-.45-.29-.47 1.12z"/><path d="m16.29 35-.47 1.12.92-.83-.45-.29z"/></svg>