<svg xmlns="http://www.w3.org/2000/svg" viewBox="0 0 236.2 185.275" x="0px" y="0px">
    <g data-name="Layer 2">
        <g data-name="Layer 1">
            <path d="M216.11,122.52V13.73A13.75,13.75,0,0,0,202.38,0h-169A13.75,13.75,0,0,0,19.68,13.73V122.52H0V136.1a12.14,12.14,0,0,0,12.12,12.12h212A12.14,12.14,0,0,0,236.2,136.1V122.52ZM23.68,13.73A9.74,9.74,0,0,1,33.41,4h169a9.73,9.73,0,0,1,9.73,9.73V122.52H197.55V19.87H38.24V122.52H23.68ZM193.55,122.52H42.24V23.87H193.55ZM232.2,136.1a8.13,8.13,0,0,1-8.12,8.12h-212A8.13,8.13,0,0,1,4,136.1v-9.58H232.2Z"/>
            <path d="M105.08,139.12h26a3.75,3.75,0,0,0,0-7.5h-26a3.75,3.75,0,1,0,0,7.5Z"/>
            <path d="M91.66,25.77H44.18V56.33H91.66Zm-4,26.56H79a11.84,11.84,0,0,0-7.27-8.14,6.28,6.28,0,1,0-7.64,0,11.81,11.81,0,0,0-7.26,8.14H48.18V29.77H87.66Z"/>
            <path d="M141.46,25.77H94V56.33h47.48Zm-4,26.56h-8.65a11.84,11.84,0,0,0-7.27-8.14,6.29,6.29,0,1,0-7.64,0,11.84,11.84,0,0,0-7.27,8.14H98V29.77h39.48Z"/>
            <path d="M191.25,25.77H143.77V56.33h47.48Zm-4,26.56H178.6a11.84,11.84,0,0,0-7.27-8.14,6.28,6.28,0,1,0-7.64,0,11.83,11.83,0,0,0-7.26,8.14h-8.66V29.77h39.48Z"/>
            <path d="M91.66,57.86H44.18V88.42H91.66Zm-4,26.56H79.05a11.84,11.84,0,0,0-7.31-8.32,6.28,6.28,0,1,0-7.64,0,11.86,11.86,0,0,0-7.31,8.32H48.18V61.86H87.66Z"/>
            <path d="M141.46,57.86H94V88.42h47.48Zm-4,26.56h-8.61a11.86,11.86,0,0,0-7.31-8.32,6.29,6.29,0,1,0-7.64,0,11.86,11.86,0,0,0-7.31,8.32H98V61.86h39.48Z"/>
            <path d="M191.25,57.86H143.77V88.42h47.48Zm-4,26.56h-8.61a11.84,11.84,0,0,0-7.31-8.32,6.28,6.28,0,1,0-7.64,0,11.86,11.86,0,0,0-7.31,8.32h-8.61V61.86h39.48Z"/>
            <path d="M91.66,89.9H44.18v30.55H91.66Zm-4,26.55H79.13a11.9,11.9,0,0,0-7.39-8.63,6.28,6.28,0,1,0-7.64,0,11.87,11.87,0,0,0-7.38,8.63H48.18V93.9H87.66Z"/>
            <path d="M141.46,89.9H94v30.55h47.48Zm-4,26.55h-8.54a11.87,11.87,0,0,0-7.38-8.63,6.29,6.29,0,1,0-7.64,0,11.9,11.9,0,0,0-7.39,8.63H98V93.9h39.48Z"/>
            <path d="M191.25,89.9H143.77v30.55h47.48Zm-4,26.55h-8.53a11.9,11.9,0,0,0-7.39-8.63,6.28,6.28,0,1,0-7.64,0,11.87,11.87,0,0,0-7.38,8.63h-8.54V93.9h39.48Z"/>
            <path d="M117.9,15.64a3.9,3.9,0,1,0-3.9-3.9A3.9,3.9,0,0,0,117.9,15.64Z"/>
        </g>
    </g>
</svg>