<svg xmlns="http://www.w3.org/2000/svg" xmlns:xlink="http://www.w3.org/1999/xlink" version="1.1" width="256" height="256" viewBox="0 0 256 256" xml:space="preserve">

<defs>
</defs>
<g style="stroke: none; stroke-width: 0; stroke-dasharray: none; stroke-linecap: butt; stroke-linejoin: miter; stroke-miterlimit: 10; fill: none; fill-rule: nonzero; opacity: 1;" transform="translate(1.4065934065934016 1.4065934065934016) scale(2.81 2.81)" >
	<path d="M 20.334 2 c 0.392 0 0.761 0.212 0.963 0.552 l 11.285 19.017 c 0.199 0.336 0.208 0.759 0.024 1.103 l -6.997 13.034 c -1.077 2.006 -0.719 4.434 0.891 6.044 l 10.876 10.876 l 10.876 10.876 c 0.967 0.967 2.254 1.5 3.623 1.5 c 0.842 0 1.679 -0.211 2.422 -0.609 l 13.034 -6.997 c 0.163 -0.087 0.346 -0.133 0.53 -0.133 c 0.201 0 0.399 0.054 0.572 0.157 l 19.017 11.285 c 0.487 0.289 0.683 0.895 0.457 1.409 c -1.654 3.763 -4.605 10.528 -5.789 13.547 c -0.147 0.374 -0.34 0.667 -0.575 0.871 C 78.885 86.833 75.455 88 71.345 88 c -11.841 0 -28.805 -9.608 -44.271 -25.074 C 17.172 53.024 9.436 42.21 5.291 32.476 C 2.19 25.191 -0.297 15.111 5.47 8.459 c 0.204 -0.235 0.497 -0.429 0.871 -0.575 C 9.36 6.7 16.125 3.748 19.888 2.095 C 20.031 2.032 20.181 2 20.334 2 M 20.334 0 c -0.419 0 -0.844 0.085 -1.25 0.264 C 15.386 1.889 8.607 4.847 5.611 6.022 C 4.98 6.269 4.402 6.637 3.958 7.149 c -10.986 12.674 2.4 37.89 21.701 57.191 C 40.159 78.84 57.994 90 71.345 90 c 4.421 0 8.353 -1.225 11.506 -3.958 c 0.512 -0.444 0.88 -1.022 1.127 -1.652 c 1.175 -2.996 4.133 -9.775 5.758 -13.473 c 0.635 -1.444 0.089 -3.128 -1.268 -3.933 L 69.452 55.699 c -0.49 -0.291 -1.041 -0.437 -1.593 -0.437 c -0.507 0 -1.015 0.123 -1.476 0.371 L 53.349 62.63 c -0.465 0.25 -0.972 0.371 -1.476 0.371 c -0.809 0 -1.608 -0.314 -2.208 -0.914 L 38.789 51.211 L 27.913 40.335 c -0.974 -0.974 -1.194 -2.471 -0.543 -3.684 l 6.997 -13.034 c 0.517 -0.964 0.493 -2.129 -0.066 -3.07 L 23.017 1.531 C 22.438 0.556 21.405 0 20.334 0 L 20.334 0 z" style="stroke: none; stroke-width: 1; stroke-dasharray: none; stroke-linecap: butt; stroke-linejoin: miter; stroke-miterlimit: 10; fill: rgb(179, 203, 208); fill-rule: nonzero; opacity: 1;" transform=" matrix(1 0 0 1 0 0) " stroke-linecap="round" />
</g>
</svg>