<?xml version="1.0" encoding="UTF-8"?>
<!-- Generator: Adobe Illustrator 24.1.2, SVG Export Plug-In . SVG Version: 6.00 Build 0)  -->
<svg version="1.1" id="Layer_1" xmlns="http://www.w3.org/2000/svg" xmlns:xlink="http://www.w3.org/1999/xlink" x="0px" y="0px" viewBox="0 0 1600 1305" style="enable-background:new 0 0 1600 1305;" xml:space="preserve">
<style type="text/css">
	.st0{fill:#C5192D;}
</style>
<g>
	<polygon class="st0" points="627.2,386.3 124.8,96.2 124.8,1034.6 627.2,1186.2  "/>
	<polygon class="st0" points="682.4,388.2 682.4,1186.5 1188.1,1034.5 1188.1,96.2  "/>
	<polygon class="st0" points="1478.3,1018 1463.6,1018 1523,1225.7 1582.4,1018 1567.6,1018 1582.4,1018 1582.4,183.1 1567.6,183.1    1552.9,183.1 1537.2,183.1 1507.7,183.1 1493.1,183.1 1478.3,183.1 1463.5,183.1 1463.5,1018  "/>
	<polygon class="st0" points="1296,136.5 1242.1,94 1242.1,1060 683.9,1240.4 658.1,1240.4 653,1240.4 627.2,1240.4 71.5,1085.2    71.5,94 17.6,136.5 17.6,1123 624.6,1291 653,1291 658.1,1291 686.4,1291 1246.5,1113.2 1296,1098.6  "/>
	<path class="st0" d="M1582.4,72.5c0-32.9-26.6-59.5-59.4-59.5c-32.9,0-59.5,26.6-59.5,59.5v64.1h118.9V72.5z"/>
</g>
</svg>