<?xml version="1.0" encoding="UTF-8"?>
<svg id="Layer_1" data-name="Layer 1" xmlns="http://www.w3.org/2000/svg" viewBox="0 0 250 250">
  <defs>
    <style>
      .cls-1 {
        fill: none;
      }

      .cls-2 {
        fill: #1d2d5c;
      }

      .cls-3 {
        fill: #00a4e4;
      }

      .cls-3, .cls-4 {
        opacity: .6;
      }

      .cls-4 {
        fill: #6cb33f;
      }
    </style>
  </defs>
  <rect class="cls-1" width="250" height="250"/>
  <path class="cls-2" d="m62.5,72.27c-11.85,0-21.48-9.64-21.48-21.48s9.64-21.48,21.48-21.48,21.48,9.64,21.48,21.48-9.64,21.48-21.48,21.48Zm0-37.11c-8.62,0-15.62,7.01-15.62,15.62s7.01,15.62,15.62,15.62,15.62-7.01,15.62-15.62-7.01-15.62-15.62-15.62Z"/>
  <path class="cls-2" d="m35.49,175.05l-5.84-.49,6.52-77.59c.88-9.64,8.82-16.89,18.48-16.89,7.93,0,15.34,3.91,19.81,10.47l.16.26,9.34,17.31,33.78,2.38,4.25,12.59-5.55,1.87-3-8.89-33.1-2.33-10.79-20c-3.38-4.88-8.94-7.79-14.88-7.79-6.61,0-12.04,4.96-12.64,11.55l-6.52,77.57Z"/>
  <polygon class="cls-2" points="109.88 232.4 91.14 177.73 84.58 177.73 84.58 171.88 95.33 171.88 115.42 230.5 109.88 232.4"/>
  <rect class="cls-2" x="111.33" y="136.72" width="76.71" height="5.86"/>
  <path class="cls-2" d="m124.18,232.17l-18.93-73.78c-1.18-4.72-5.38-8-10.23-8h-26.65v-25.21l-11.04-11.84,4.29-4,12.62,13.53v21.66h20.79c7.54,0,14.08,5.11,15.91,12.42l18.93,73.76-5.68,1.46Z"/>
  <rect class="cls-2" x="83.98" y="228.52" width="133.79" height="5.86"/>
  <path class="cls-4" d="m79.1,183.59c0-4.85-3.93-8.79-8.79-8.79H21.48c-4.85,0-8.79,3.94-8.79,8.79s3.93,8.79,8.79,8.79h48.83c4.85,0,8.79-3.94,8.79-8.79Z"/>
  <path class="cls-2" d="m70.31,195.31H21.48c-6.46,0-11.72-5.26-11.72-11.72s5.26-11.72,11.72-11.72h48.83v5.86H21.48c-3.23,0-5.86,2.63-5.86,5.86s2.63,5.86,5.86,5.86h48.83c3.23,0,5.86-2.63,5.86-5.86h5.86c0,6.46-5.26,11.72-11.72,11.72Z"/>
  <path class="cls-2" d="m64.45,234.38h-8.79c-7,0-12.7-5.7-12.7-12.7v-28.32h5.86v28.32c0,3.77,3.07,6.84,6.84,6.84h8.79v5.86Z"/>
  <path class="cls-2" d="m36.13,234.38h-8.79v-5.86h8.79c3.77,0,6.84-3.07,6.84-6.84v-29.3h5.86v29.3c0,7-5.7,12.7-12.7,12.7Z"/>
  <polygon class="cls-2" points="207.03 231.45 201.17 231.45 201.17 136.72 228.52 136.72 228.52 126.95 71.29 126.95 71.29 121.09 234.38 121.09 234.38 142.58 207.03 142.58 207.03 231.45"/>
  <rect class="cls-2" x="102.27" y="97.44" width="5.86" height="15.55" transform="translate(-19.55 24.13) rotate(-11.98)"/>
  <path class="cls-2" d="m181.64,221.68v-5.86h5.86v5.86h-5.86Zm0-15.62v-5.87h5.86v5.87h-5.86Zm0-15.63v-5.86h5.86v5.86h-5.86Zm0-15.63v-5.86h5.86v5.86h-5.86Zm0-15.62v-5.86h5.86v5.86h-5.86Z"/>
  <polygon class="cls-3" points="168.45 110.35 176.26 74.89 219.97 74.89 213.78 110.35 168.45 110.35"/>
  <path class="cls-2" d="m215.82,126.95v-5.86c2.69,0,4.88-2.19,4.88-4.88v-2.93h-18.55v-5.86h24.41v8.79c0,5.92-4.82,10.74-10.74,10.74Z"/>
  <path class="cls-2" d="m194.34,126.95h-46.88c-5.92,0-10.74-4.82-10.74-10.74v-8.79h19.43l9.91-44.92h69.07l-8.57,48.36-5.77-1.02,7.35-41.48h-57.37l-9.91,44.92h-18.28v2.93c0,2.69,2.19,4.88,4.88,4.88h46.88c2.69,0,4.88-2.19,4.88-4.88v-2.93h-17.68v-5.86h23.54v8.79c0,5.92-4.82,10.74-10.74,10.74Z"/>
  <polygon class="cls-2" points="161.36 110.98 155.64 109.72 166.06 62.5 235.13 62.5 226.56 110.86 220.79 109.84 228.14 68.36 170.77 68.36 161.36 110.98"/>
</svg>