<svg xmlns="http://www.w3.org/2000/svg" viewBox="0 0 100 100" preserveAspectRatio="xMidYMid" width="200" height="200" style="shape-rendering: auto; display: block; background: transparent;" xmlns:xlink="http://www.w3.org/1999/xlink"><g><g transform="rotate(0 50 50)">
  <rect fill="#9dfe71" height="14" width="7" ry="7" rx="3.5" y="23" x="46.5">
    <animate repeatCount="indefinite" begin="-1.4423076923076923s" dur="1.5625s" keyTimes="0;1" values="1;0" attributeName="opacity"></animate>
  </rect>
</g><g transform="rotate(27.692307692307693 50 50)">
  <rect fill="#9dfe71" height="14" width="7" ry="7" rx="3.5" y="23" x="46.5">
    <animate repeatCount="indefinite" begin="-1.3221153846153846s" dur="1.5625s" keyTimes="0;1" values="1;0" attributeName="opacity"></animate>
  </rect>
</g><g transform="rotate(55.38461538461539 50 50)">
  <rect fill="#9dfe71" height="14" width="7" ry="7" rx="3.5" y="23" x="46.5">
    <animate repeatCount="indefinite" begin="-1.2019230769230769s" dur="1.5625s" keyTimes="0;1" values="1;0" attributeName="opacity"></animate>
  </rect>
</g><g transform="rotate(83.07692307692308 50 50)">
  <rect fill="#9dfe71" height="14" width="7" ry="7" rx="3.5" y="23" x="46.5">
    <animate repeatCount="indefinite" begin="-1.0817307692307692s" dur="1.5625s" keyTimes="0;1" values="1;0" attributeName="opacity"></animate>
  </rect>
</g><g transform="rotate(110.76923076923077 50 50)">
  <rect fill="#9dfe71" height="14" width="7" ry="7" rx="3.5" y="23" x="46.5">
    <animate repeatCount="indefinite" begin="-0.9615384615384615s" dur="1.5625s" keyTimes="0;1" values="1;0" attributeName="opacity"></animate>
  </rect>
</g><g transform="rotate(138.46153846153845 50 50)">
  <rect fill="#9dfe71" height="14" width="7" ry="7" rx="3.5" y="23" x="46.5">
    <animate repeatCount="indefinite" begin="-0.8413461538461539s" dur="1.5625s" keyTimes="0;1" values="1;0" attributeName="opacity"></animate>
  </rect>
</g><g transform="rotate(166.15384615384616 50 50)">
  <rect fill="#9dfe71" height="14" width="7" ry="7" rx="3.5" y="23" x="46.5">
    <animate repeatCount="indefinite" begin="-0.7211538461538461s" dur="1.5625s" keyTimes="0;1" values="1;0" attributeName="opacity"></animate>
  </rect>
</g><g transform="rotate(193.84615384615384 50 50)">
  <rect fill="#9dfe71" height="14" width="7" ry="7" rx="3.5" y="23" x="46.5">
    <animate repeatCount="indefinite" begin="-0.6009615384615384s" dur="1.5625s" keyTimes="0;1" values="1;0" attributeName="opacity"></animate>
  </rect>
</g><g transform="rotate(221.53846153846155 50 50)">
  <rect fill="#9dfe71" height="14" width="7" ry="7" rx="3.5" y="23" x="46.5">
    <animate repeatCount="indefinite" begin="-0.4807692307692307s" dur="1.5625s" keyTimes="0;1" values="1;0" attributeName="opacity"></animate>
  </rect>
</g><g transform="rotate(249.23076923076923 50 50)">
  <rect fill="#9dfe71" height="14" width="7" ry="7" rx="3.5" y="23" x="46.5">
    <animate repeatCount="indefinite" begin="-0.3605769230769231s" dur="1.5625s" keyTimes="0;1" values="1;0" attributeName="opacity"></animate>
  </rect>
</g><g transform="rotate(276.9230769230769 50 50)">
  <rect fill="#9dfe71" height="14" width="7" ry="7" rx="3.5" y="23" x="46.5">
    <animate repeatCount="indefinite" begin="-0.24038461538461536s" dur="1.5625s" keyTimes="0;1" values="1;0" attributeName="opacity"></animate>
  </rect>
</g><g transform="rotate(304.61538461538464 50 50)">
  <rect fill="#9dfe71" height="14" width="7" ry="7" rx="3.5" y="23" x="46.5">
    <animate repeatCount="indefinite" begin="-0.12019230769230768s" dur="1.5625s" keyTimes="0;1" values="1;0" attributeName="opacity"></animate>
  </rect>
</g><g transform="rotate(332.3076923076923 50 50)">
  <rect fill="#9dfe71" height="14" width="7" ry="7" rx="3.5" y="23" x="46.5">
    <animate repeatCount="indefinite" begin="0s" dur="1.5625s" keyTimes="0;1" values="1;0" attributeName="opacity"></animate>
  </rect>
</g><g></g></g><!-- [ldio] generated by https://loading.io --></svg>