<?xml version="1.0" encoding="iso-8859-1"?>
<!-- Uploaded to: SVG Repo, www.svgrepo.com, Generator: SVG Repo Mixer Tools -->
<svg version="1.1" id="Layer_1" xmlns="http://www.w3.org/2000/svg" xmlns:xlink="http://www.w3.org/1999/xlink" 
	 viewBox="0 0 512 512" xml:space="preserve">
<path style="fill:#02967D;" d="M504.026,192.374C475.737,81.771,375.42,0,256,0C114.616,0,0,114.616,0,256
	c0,119.42,81.771,219.737,192.374,248.026L504.026,192.374z"/>
<path style="fill:#0E7563;" d="M504.026,192.374L389.565,77.913L44.522,283.826l108.919,108.919l-31.006,41.342l69.939,69.939
	C212.717,509.231,234.035,512,256,512c141.384,0,256-114.616,256-256C512,234.035,509.23,212.717,504.026,192.374z"/>
<polygon style="fill:#e8e8e8;" points="257.113,77.913 212.591,256 257.113,434.087 323.896,434.087 346.156,389.565 
	390.678,367.304 390.678,77.913 "/>
<rect x="123.548" y="77.913" style="fill:#FFFFFF;" width="133.565" height="356.174"/>
<polygon style="fill:#333333;" points="322.783,434.087 322.783,367.304 389.565,367.304 "/>
<polygon style="fill:#F97D85;" points="378.435,244.87 400.696,283.826 434.087,269.913 445.217,256 "/>
<polygon style="fill:#FCBEC2;" points="400.696,228.174 378.435,256 445.217,256 434.087,242.087 "/>
<polygon style="fill:#000000;" points="434.087,269.913 467.478,256 434.087,242.087 "/>
<polygon style="fill:#FBD867;" points="66.783,228.174 55.652,256 233.739,278.261 400.696,256 400.696,228.174 "/>
<polygon style="fill:#F9BE02;" points="55.652,256 66.783,283.826 400.696,283.826 400.696,256 "/>
<polygon style="fill:#F85C67;" points="44.522,228.174 44.522,256 55.652,267.13 66.783,256 66.783,228.174 "/>
<rect x="44.522" y="256" style="fill:#F63341;" width="22.261" height="27.826"/>
</svg>